<svg xmlns="http://www.w3.org/2000/svg" xmlns:xlink="http://www.w3.org/1999/xlink" viewBox="0 0 502.7 770.82"><defs><style>.cls-1{isolation:isolate;}.cls-2{fill:url(#Degradado_sin_nombre_15);}.cls-3{fill:url(#Degradado_sin_nombre_141);}.cls-4{fill:url(#linear-gradient);}.cls-5{fill:url(#Degradado_sin_nombre_13);}.cls-6{fill:url(#Degradado_sin_nombre_12);}.cls-7{fill:url(#Degradado_sin_nombre_11);}.cls-8{fill:url(#Degradado_sin_nombre_10);}.cls-9{fill:url(#Degradado_sin_nombre_9);}.cls-10{fill:url(#Degradado_sin_nombre_8);}.cls-11{fill:url(#Degradado_sin_nombre_7);}.cls-12{fill:url(#Degradado_sin_nombre_5);}.cls-13{fill:url(#Degradado_sin_nombre_4);}.cls-14{fill:url(#Degradado_sin_nombre_3);}.cls-15{fill:url(#Degradado_sin_nombre_114);}.cls-16{fill:url(#Degradado_sin_nombre_75);}.cls-17,.cls-20,.cls-22,.cls-23,.cls-25,.cls-27,.cls-31{mix-blend-mode:multiply;}.cls-18{fill:url(#Degradado_sin_nombre_69);}.cls-19{fill:url(#Degradado_sin_nombre_74);}.cls-20{fill:url(#Degradado_sin_nombre_69-2);}.cls-21{fill:#804e25;}.cls-22{fill:url(#Degradado_sin_nombre_68);}.cls-23{fill:url(#Degradado_sin_nombre_69-3);}.cls-24{fill:#422a19;}.cls-25{fill:url(#Degradado_sin_nombre_68-2);}.cls-26{fill:url(#Degradado_sin_nombre_58);}.cls-27{fill:url(#Degradado_sin_nombre_58-2);}.cls-28,.cls-30{mix-blend-mode:screen;}.cls-28{fill:url(#Degradado_sin_nombre_58-3);}.cls-29{fill:url(#Degradado_sin_nombre_58-4);}.cls-30{fill:url(#Degradado_sin_nombre_58-5);}.cls-31{fill:url(#Degradado_sin_nombre_58-6);}</style><linearGradient id="Degradado_sin_nombre_15" x1="72.12" y1="258.98" x2="283.32" y2="281.18" gradientUnits="userSpaceOnUse"><stop offset="0.01" stop-color="#683c14"/><stop offset="0.31" stop-color="#623915"/><stop offset="0.72" stop-color="#523217"/><stop offset="1" stop-color="#422a19"/></linearGradient><linearGradient id="Degradado_sin_nombre_141" x1="258.37" y1="425.11" x2="149.87" y2="141.13" gradientUnits="userSpaceOnUse"><stop offset="0" stop-color="#7f4f25"/><stop offset="0.3" stop-color="#8f5f30"/><stop offset="1" stop-color="#b18049"/></linearGradient><linearGradient id="linear-gradient" x1="328.57" y1="518.47" x2="328.57" y2="71.31" gradientTransform="matrix(1, 0, -0.02, 0.94, -27.01, -67.32)" gradientUnits="userSpaceOnUse"><stop offset="0" stop-color="#e52621"/><stop offset="0.16" stop-color="#eb5b20"/><stop offset="0.34" stop-color="#f08d1f"/><stop offset="0.5" stop-color="#f4b51e"/><stop offset="0.65" stop-color="#f7d21d"/><stop offset="0.78" stop-color="#f9e31d"/><stop offset="0.88" stop-color="#fae91d"/></linearGradient><linearGradient id="Degradado_sin_nombre_13" x1="252.62" y1="216.86" x2="336.75" y2="221.27" gradientTransform="matrix(1, 0, -0.02, 0.94, -27.01, -67.32)" gradientUnits="userSpaceOnUse"><stop offset="0" stop-color="#fbeb52"/><stop offset="0.2" stop-color="#f7c949"/><stop offset="0.64" stop-color="#ee7234"/><stop offset="1" stop-color="#e52621"/></linearGradient><linearGradient id="Degradado_sin_nombre_12" x1="357.71" y1="519.46" x2="357.71" y2="266.87" gradientTransform="matrix(1, 0, -0.02, 0.94, -27.01, -67.32)" gradientUnits="userSpaceOnUse"><stop offset="0" stop-color="#e20e17"/><stop offset="0.14" stop-color="#dc0e16"/><stop offset="0.32" stop-color="#cc0d13"/><stop offset="0.53" stop-color="#b10d0f"/><stop offset="0.76" stop-color="#8b0b08"/><stop offset="0.99" stop-color="#5b0a00"/><stop offset="1" stop-color="#5a0a00"/></linearGradient><linearGradient id="Degradado_sin_nombre_11" x1="376.86" y1="423.09" x2="376.86" y2="137.32" gradientUnits="userSpaceOnUse"><stop offset="0" stop-color="#e20e17"/><stop offset="0.59" stop-color="#ec5e09"/><stop offset="1" stop-color="#f39200"/></linearGradient><linearGradient id="Degradado_sin_nombre_10" x1="396.14" y1="423.09" x2="396.14" y2="136.37" gradientUnits="userSpaceOnUse"><stop offset="0" stop-color="#5a0a00"/><stop offset="0.01" stop-color="#5b0a00"/><stop offset="0.24" stop-color="#8b0b08"/><stop offset="0.47" stop-color="#b10d0f"/><stop offset="0.68" stop-color="#cc0d13"/><stop offset="0.86" stop-color="#dc0e16"/><stop offset="1" stop-color="#e20e17"/></linearGradient><linearGradient id="Degradado_sin_nombre_9" x1="406.74" y1="431.21" x2="491.51" y2="270.56" gradientUnits="userSpaceOnUse"><stop offset="0" stop-color="#008e39"/><stop offset="0.63" stop-color="#60af28"/><stop offset="1" stop-color="#94c11f"/></linearGradient><linearGradient id="Degradado_sin_nombre_8" x1="422.85" y1="433.61" x2="494.36" y2="244.71" gradientUnits="userSpaceOnUse"><stop offset="0" stop-color="#056734"/><stop offset="0.3" stop-color="#037836"/><stop offset="0.69" stop-color="#018838"/><stop offset="1" stop-color="#008e39"/></linearGradient><linearGradient id="Degradado_sin_nombre_7" x1="5745.32" y1="2225.56" x2="5813.01" y2="2097.3" gradientTransform="matrix(-0.17, 0.99, -0.99, -0.17, 3141.83, -4936.98)" gradientUnits="userSpaceOnUse"><stop offset="0" stop-color="#1f71b8"/><stop offset="1" stop-color="#189cd9"/></linearGradient><linearGradient id="Degradado_sin_nombre_5" x1="5758.19" y1="2227.48" x2="5815.28" y2="2076.66" gradientTransform="matrix(-0.17, 0.99, -0.99, -0.17, 3141.83, -4936.98)" gradientUnits="userSpaceOnUse"><stop offset="0" stop-color="#062a48"/><stop offset="0.15" stop-color="#0c3a61"/><stop offset="0.4" stop-color="#145287"/><stop offset="0.63" stop-color="#1a63a2"/><stop offset="0.84" stop-color="#1e6db2"/><stop offset="1" stop-color="#1f71b8"/></linearGradient><linearGradient id="Degradado_sin_nombre_4" x1="197.11" y1="681.71" x2="402.6" y2="681.71" gradientTransform="matrix(0.99, 0.1, -0.1, 0.99, -106.97, -398.52)" gradientUnits="userSpaceOnUse"><stop offset="0" stop-color="#e40d7e"/><stop offset="0.3" stop-color="#c2147f"/><stop offset="0.96" stop-color="#6b2581"/><stop offset="1" stop-color="#662681"/></linearGradient><linearGradient id="Degradado_sin_nombre_3" x1="197.11" y1="676.77" x2="397.66" y2="676.77" gradientTransform="matrix(0.99, 0.1, -0.1, 0.99, -106.97, -398.52)" gradientUnits="userSpaceOnUse"><stop offset="0" stop-color="#662681"/><stop offset="0.04" stop-color="#6b2581"/><stop offset="0.7" stop-color="#c2147f"/><stop offset="1" stop-color="#e40d7e"/></linearGradient><linearGradient id="Degradado_sin_nombre_114" x1="210.34" y1="752.03" x2="402.1" y2="752.03" gradientTransform="matrix(0.99, 0.1, -0.1, 0.99, -106.97, -398.52)" gradientUnits="userSpaceOnUse"><stop offset="0" stop-color="#29265b"/><stop offset="0.12" stop-color="#3d2462"/><stop offset="0.38" stop-color="#63216f"/><stop offset="0.62" stop-color="#7e1e78"/><stop offset="0.84" stop-color="#8e1d7e"/><stop offset="1" stop-color="#941c80"/></linearGradient><linearGradient id="Degradado_sin_nombre_75" x1="237.68" y1="459.41" x2="243.89" y2="587.34" gradientTransform="matrix(1, 0, 0.01, 1, 12.49, -0.03)" gradientUnits="userSpaceOnUse"><stop offset="0" stop-color="#b07f48"/><stop offset="1" stop-color="#b07f48"/></linearGradient><linearGradient id="Degradado_sin_nombre_69" x1="154.88" y1="469.07" x2="160.83" y2="591.75" gradientUnits="userSpaceOnUse"><stop offset="0" stop-color="#926137"/><stop offset="0.26" stop-color="#9e6f42" stop-opacity="0.77"/><stop offset="0.84" stop-color="#be925f" stop-opacity="0.17"/><stop offset="1" stop-color="#c79c67" stop-opacity="0"/></linearGradient><linearGradient id="Degradado_sin_nombre_74" x1="233.48" y1="612.07" x2="237.65" y2="810.78" gradientTransform="matrix(1, 0, 0.01, 1, 12.49, -0.03)" gradientUnits="userSpaceOnUse"><stop offset="0" stop-color="#b07f48"/><stop offset="0.5" stop-color="#8e5f30"/><stop offset="1" stop-color="#683c16"/></linearGradient><linearGradient id="Degradado_sin_nombre_69-2" x1="237.66" y1="617.03" x2="241.7" y2="809.96" xlink:href="#Degradado_sin_nombre_69"/><linearGradient id="Degradado_sin_nombre_68" x1="264.57" y1="525.63" x2="392.82" y2="525.63" gradientUnits="userSpaceOnUse"><stop offset="0" stop-color="#b07f48" stop-opacity="0"/><stop offset="0.36" stop-color="#986938" stop-opacity="0.33"/><stop offset="1" stop-color="#683c16"/></linearGradient><linearGradient id="Degradado_sin_nombre_69-3" x1="419.74" y1="567.08" x2="314.5" y2="518.54" xlink:href="#Degradado_sin_nombre_69"/><linearGradient id="Degradado_sin_nombre_68-2" x1="264.57" y1="693.64" x2="326.05" y2="693.64" xlink:href="#Degradado_sin_nombre_68"/><linearGradient id="Degradado_sin_nombre_58" x1="167.42" y1="617.94" x2="340.8" y2="617.94" gradientUnits="userSpaceOnUse"><stop offset="0" stop-color="#c79c67"/><stop offset="0.4" stop-color="#b18353"/><stop offset="1" stop-color="#926137"/></linearGradient><linearGradient id="Degradado_sin_nombre_58-2" x1="167.42" y1="625.59" x2="337.25" y2="625.59" xlink:href="#Degradado_sin_nombre_58"/><linearGradient id="Degradado_sin_nombre_58-3" x1="168.92" y1="617.01" x2="340.8" y2="617.01" xlink:href="#Degradado_sin_nombre_58"/><linearGradient id="Degradado_sin_nombre_58-4" x1="98.05" y1="467.6" x2="409.5" y2="467.6" xlink:href="#Degradado_sin_nombre_58"/><linearGradient id="Degradado_sin_nombre_58-5" x1="98.72" y1="466.43" x2="409.5" y2="466.43" xlink:href="#Degradado_sin_nombre_58"/><linearGradient id="Degradado_sin_nombre_58-6" x1="98.05" y1="477.41" x2="400.83" y2="477.41" xlink:href="#Degradado_sin_nombre_58"/></defs><title>favicon</title><g class="cls-1"><g id="Capa_1" data-name="Capa 1"><path class="cls-2" d="M159.07,266.43c-50.43-39.82-27-102.13,27.37-136.91-95,10.6-153.18,89.91-69.21,160.29,46,38.56,177.74,71.91,138.81,130C311.33,368.2,208.32,309.21,159.07,266.43Z"/><path class="cls-3" d="M243,301.68c-47.53-45-89.09-111-55.82-172.33l-.69.17c-54.41,34.78-77.8,97.09-27.37,136.91,49.25,42.78,152.26,101.77,97,153.37-.75,1.09-1.42,2.17-2.27,3.3C310.58,387.84,283.22,339.84,243,301.68Z"/><path class="cls-4" d="M318.15,184.63c-1.93,3,.69-3.15,0,0,26.51-41.25,66.63-110.37-21-184.63a59.73,59.73,0,0,1,12.21,21.5C323.16,88,265.65,137,248.79,200c-9.38,26.85-11.24,53.69.66,78.37,26.27,43.53,88.91,81,48.28,143.77,24.42-18.59,47.31-61.77,28.46-90.11C287.8,275.27,298.16,227,318.15,184.63Z"/><path class="cls-5" d="M249.51,201.7c16.87-63,74.38-112,60.59-178.53C307.82,12.52,302.68,6.43,297.17,0h0c18.77,72.34-98,124.69-78.82,219.47,4.74,23.4,17.32,42.86,31.83,60.6C238.27,255.39,240.14,228.55,249.51,201.7Z"/><path class="cls-6" d="M318.15,184.63c-29.6,54.12-32.93,87.3-4.15,145,15.12,30.32,8.15,73.95-16.27,92.54-.2.31-.36.61-.57.93C415,330.71,294.76,291.91,318.15,184.63Z"/><path class="cls-7" d="M368.68,159.23a54.52,54.52,0,0,1,.35-21.91c-36.85,45.67-32.41,98.1-19.51,123.87,26.31,52.57,43.42,99.28-13,161.9C493.83,330.74,373.45,245.51,368.68,159.23Z"/><path class="cls-8" d="M455.76,302.59c0-92.36-86-84.65-86-166.22-.26.31-.46.63-.73.95a54.52,54.52,0,0,0-.35,21.91c4.77,86.28,113.16,169.22-32.16,263.86h0S455.76,374.27,455.76,302.59Z"/><path class="cls-9" d="M456.26,239.1s29.28,55.08,8.86,106.86C446.5,393.19,381.69,423,381.69,423s88.47,5.27,115.8-67.23C521.23,292.79,456.26,239.1,456.26,239.1Z"/><path class="cls-10" d="M456.26,239.1s44.65,62.12,24.22,113.9c-18.62,47.23-98.79,70-98.79,70s88.47,5.27,115.8-67.23C521.23,292.79,456.26,239.1,456.26,239.1Z"/><path class="cls-11" d="M137.11,423.08s-47.25,15.75-85.31-7.2C17.08,395,2.21,340,2.21,340s-15.89,68.94,37.57,100.08C86.22,467.11,137.11,423.08,137.11,423.08Z"/><path class="cls-12" d="M137.11,423.08S82.28,450,44.22,427C9.5,406.11,2.21,340,2.21,340s-15.89,68.94,37.57,100.08C86.22,467.11,137.11,423.08,137.11,423.08Z"/><path class="cls-13" d="M212.94,423.09s10-35-19.35-58.27S109.9,373.15,76,326.37,58.51,200.22,58.51,200.22s-62.34,78.36-28.1,141.3,98.53,68.77,131.73,52.16C202.49,373.48,212.94,423.09,212.94,423.09Z"/><path class="cls-14" d="M209.56,412.83s3-18.28-13.13-28.41c-31.74-19.88-76.24,8.44-123.44-24.76C9.74,315.16,58.51,200.22,58.51,200.22s-62.34,78.36-28.1,141.3,98.53,68.77,131.73,52.16C202.49,373.48,209.56,412.83,209.56,412.83Z"/><path class="cls-15" d="M28.88,338.57S53.55,427.87,143,408.51c66.74-14.45,70,14.58,70,14.58s9.6-57.71-61.61-39.12C105.94,395.82,51.34,387.86,28.88,338.57Z"/><path class="cls-16" d="M122.47,498.4S136,454,250.61,454.29c133.59.39,142.18,37.38,142.18,37.38s-36,15.57-57.36,60.8-4.2,58.19-4.2,58.19-37-16.65-83.91-15.57-69.64,21.41-69.64,21.41S174,542.64,122.47,498.4Z"/><g class="cls-17"><path class="cls-18" d="M140.53,492.35s5.22-17.07,36.46-30c-47.41,12.73-54.52,36-54.52,36,51.52,44.24,55.21,118.1,55.21,118.1s5.83-5.22,17.68-10.5C193.63,589.41,184.49,530.1,140.53,492.35Z"/></g><path class="cls-19" d="M297.41,770.82l28.64-136.7s-26.37-16.58-72.28-17.65-72.28,17.65-72.28,17.65l29,136.7h86.92Z"/><path class="cls-20" d="M279.42,770.82H225.33l-29-141.89a79.62,79.62,0,0,1,13.7-7.15c-18.49,5.21-28.55,12.34-28.55,12.34l29,136.7h68.93Z"/><path class="cls-21" d="M264.57,440.6V594.55c44.6,0,66.66,16.11,66.66,16.11s3.39-32,9.54-46.31c19.73-46,52-72.68,52-72.68S398.16,441,264.57,440.6Z"/><path class="cls-22" d="M264.57,440.6V594.55c44.6,0,66.66,16.11,66.66,16.11s3.39-32,9.54-46.31c19.73-46,52-72.68,52-72.68S398.16,441,264.57,440.6Z"/><g class="cls-17"><path class="cls-23" d="M293.6,441.57c93.86,9,89.59,49.31,89.59,49.31s-32.3,26.7-52,72.68c-4.78,11.16-7.89,32.94-9,42.1a56.92,56.92,0,0,1,9.1,5s3.39-32,9.54-46.31c19.73-46,52-72.68,52-72.68S397.35,448.62,293.6,441.57Z"/></g><path class="cls-24" d="M297.41,770.82l28.64-136.7s-12.28-16.54-61.48-17.65V770.82Z"/><path class="cls-25" d="M297.41,770.82l28.64-136.7s-12.28-16.54-61.48-17.65V770.82Z"/><path class="cls-26" d="M340.77,616.45c.38-4.68-3.73-8.21-8-9.21-22.8-8.91-49.88-14.12-79-14.12-29.78,0-57.47,5.4-80.58,14.68h0c-3.61,1.44-6.45,6-5.63,9.76.87,4,2.54,12.1,3.43,16.32,1.3,6.15,5.54,8.89,10.45,8.89a8.85,8.85,0,0,0,4.42-1.22v0c18.21-8.33,41.93-13.39,67.9-13.39,26.18,0,50,5.15,68.31,13.59a8.86,8.86,0,0,0,4,1c4.91,0,10.19-3.13,11.2-8.65C337.88,630.66,340.52,619.6,340.77,616.45Z"/><path class="cls-27" d="M330.5,636.16a8.74,8.74,0,0,1-4-1c-18.25-8.44-42.12-13.58-68.3-13.58-26,0-49.7,5-67.9,13.38v0a8.78,8.78,0,0,1-4.42,1.22c-4.91,0-9.16-2.73-10.45-8.88-.89-4.23-2.57-12.31-3.43-16.32a7,7,0,0,1,0-2.54c-3,1.86-5.13,5.78-4.41,9.14.87,4,2.54,12.1,3.43,16.32,1.3,6.15,5.54,8.89,10.45,8.89a8.85,8.85,0,0,0,4.42-1.22v0c18.21-8.33,41.93-13.39,67.9-13.39,26.18,0,50,5.15,68.31,13.59a8.86,8.86,0,0,0,4,1c4.91,0,10.19-3.13,11.2-8.65h0A12.3,12.3,0,0,1,330.5,636.16Z"/><path class="cls-28" d="M332.79,607.24c-22.8-8.91-49.88-14.12-79-14.12-29.78,0-57.47,5.4-80.58,14.68a9.34,9.34,0,0,0-4.27,3.68,7.61,7.61,0,0,1,1-.47c23.11-9.28,50.8-14.68,80.59-14.68,29.14,0,56.22,5.21,79,14.12,4.24,1,8.36,4.53,8,9.21-.26,3.15-2.9,14.21-3.53,17.67a9.68,9.68,0,0,1-1.42,3.58,10.11,10.11,0,0,0,4.74-6.79c.63-3.46,3.27-14.52,3.52-17.67C341.15,611.77,337,608.24,332.79,607.24Z"/><path class="cls-29" d="M409.5,462.2a9.33,9.33,0,0,0-7.17-9.07v0a611.82,611.82,0,0,0-148.56-17.9,611.37,611.37,0,0,0-148.83,18v.05A9.29,9.29,0,0,0,98.87,466l9.45,28h0a9.19,9.19,0,0,0,11.71,5.5v.09C160.32,486,205.72,478.4,253.77,478.4s93.5,7.64,133.77,21.18v-.12a9.18,9.18,0,0,0,11.9-6.22h.12L409.12,465H409A9.4,9.4,0,0,0,409.5,462.2Z"/><path class="cls-30" d="M409.5,462.2a9.33,9.33,0,0,0-7.17-9.07v0a611.82,611.82,0,0,0-148.56-17.9,611.37,611.37,0,0,0-148.83,18v.05a9.34,9.34,0,0,0-6.22,5.54,9.43,9.43,0,0,1,3.72-2v-.05a612,612,0,0,1,148.84-18,611.74,611.74,0,0,1,148.55,17.89v0a9.2,9.2,0,0,1,6.71,11.85h.08l-9.55,28.27H397a8.53,8.53,0,0,1-.32.89,9.38,9.38,0,0,0,2.81-4.42h.12L409.12,465H409A9.4,9.4,0,0,0,409.5,462.2Z"/><path class="cls-31" d="M394.16,492.33a9.12,9.12,0,0,1-3-.53v.13c-40.27-13.54-85.69-21.18-133.77-21.18S164,478.38,123.72,491.91v-.09A9.19,9.19,0,0,1,112,486.31h0l-9.45-28a9.27,9.27,0,0,1-.81-3.54A9.27,9.27,0,0,0,98.87,466l9.45,28h0a9.19,9.19,0,0,0,11.71,5.5v.09C160.32,486,205.72,478.4,253.77,478.4s93.5,7.64,133.77,21.18v-.12a9.18,9.18,0,0,0,11.9-6.22h.12l1.27-3.75A9.21,9.21,0,0,1,394.16,492.33Z"/></g></g></svg>